# xmcd CD database file
#
# Track frame offsets:
#	182
#	27515
#	38537
#	72790
#	84132
#	94172
#	114467
#	129690
#	153107
#	180815
#	219030
#	236070
#
# Disc length: 3598 seconds
#
# Revision: 0
# Processed by: cddbd v1.5.2PL0 Copyright (c) Steve Scherf et al.
# Submitted via: CDex 1.50beta10
#
DISCID=870e0c0c
DTITLE=Znort and Teddy Baptiste and Filip Barret Trio - Best of Jazz Reunion Island
DYEAR=1991
DGENRE=Jazz
TTITLE0=Ker o Zen
TTITLE1=B comme Blues
TTITLE2=Embona
TTITLE3=Indolence
TTITLE4=Tonton Ernest
TTITLE5=Rapagon
TTITLE6=Kass pal
TTITLE7=Jeremy (pour Marie-Andree Gerard)
TTITLE8=Temisse
TTITLE9=Firinga
TTITLE10=Mon vie ti bo
TTITLE11=La plim zoizo
EXTD=YEAR: 1991
EXTT0=
EXTT1=
EXTT2=
EXTT3=
EXTT4=
EXTT5=
EXTT6=
EXTT7=
EXTT8=
EXTT9=
EXTT10=
EXTT11=
PLAYORDER=
